<svg xmlns="http://www.w3.org/2000/svg" viewBox="0 0 200.83 20.15"><defs><style>.a{fill:#fff;}</style></defs><title>logo_white</title><path class="a" d="M1178.3,4600.4h10.18v2.28h-12.83V4583.3h12.55v2.28h-9.91v14.83Z" transform="translate(-1042.7 -4582.9)"/><path class="a" d="M1181,4593.13l2-2.88,2,2.88-2,2.88Z" transform="translate(-1042.7 -4582.9)"/><path class="a" d="M1073.27,4600.4h10.18v2.28h-12.83V4583.3h12.55v2.28h-9.91v14.83Z" transform="translate(-1042.7 -4582.9)"/><path class="a" d="M1076,4593.13l2-2.88,2,2.88-2,2.88Z" transform="translate(-1042.7 -4582.9)"/><path class="a" d="M1055.15,4602.68c-0.74-.31-1.11-2-1.29-3.91-0.25-3-1.17-4.59-3.91-4.59h-4.59v8.5h-2.65v-19.41H1050c4.9,0,7.15,2.13,7.15,5.39,0,2.43-2.19,4.25-4.71,4.44,2.25,0.37,3.39,2.16,3.76,4.44,0.49,3.24,1.11,4.31,2.16,4.93v0.22h-3.24Zm-9.8-10.66h4.28c3.3,0,4.84-1,4.84-3.27s-1.36-3.24-4.62-3.24h-4.5v6.5Z" transform="translate(-1042.7 -4582.9)"/><path class="a" d="M1096.73,4596.58a6.91,6.91,0,0,0,6.44,4.25c2.62,0,4.59-1.11,4.59-3.36,0-1.76-1.2-2.47-3.27-3l-3.85-.92c-2.56-.59-4.65-2-4.65-5.08,0-3.3,2.65-5.61,6.47-5.61a7.8,7.8,0,0,1,7.15,3.82l-1.73,1.88a5.76,5.76,0,0,0-5.42-3.48c-2.37,0-3.94,1.17-3.94,3.27,0,1.82,1.29,2.43,3.3,2.9l3.42,0.8c2.83,0.68,5,2,5,5.33,0,3.54-3.08,5.64-7.09,5.64-3.54,0-6.78-1.66-8.07-4.44Z" transform="translate(-1042.7 -4582.9)"/><path class="a" d="M1125.85,4594.91v7.76h-2.68v-19.41h6.66c4.81,0,7.55,2.19,7.55,5.82s-2.74,5.82-7.55,5.82h-4Zm3.91-2.25c3.33,0,5-1.17,5-3.57s-1.63-3.57-5-3.57h-3.91v7.15h3.91Z" transform="translate(-1042.7 -4582.9)"/><path class="a" d="M1152.72,4583.27v17.07h10v2.34H1150v-19.41h2.71Z" transform="translate(-1042.7 -4582.9)"/><path class="a" d="M1212.85,4598.3v-15h2.5v19.41H1213l-9.61-16v16h-2.5v-19.41H1204Z" transform="translate(-1042.7 -4582.9)"/><path class="a" d="M1228.61,4583.27h5.11c6,0,9.8,3.64,9.8,9.71s-3.82,9.71-9.8,9.71h-5.11v-19.41Zm4.81,17.19c4.74,0,7.3-2.77,7.3-7.49s-2.56-7.49-7.3-7.49h-2.1v15h2.1Z" transform="translate(-1042.7 -4582.9)"/></svg>