<svg xmlns="http://www.w3.org/2000/svg" viewBox="0 0 240.57 24.14"><title>logo</title><path d="M276.79,135.91H289v2.73H273.62V115.42h15v2.73H276.79v17.76Z" transform="translate(-114.35 -114.94)"/><path d="M280.06,127.2l2.44-3.45,2.44,3.45-2.44,3.45Z" transform="translate(-114.35 -114.94)"/><path d="M151,135.91h12.2v2.73H147.8V115.42h15v2.73H151v17.76Z" transform="translate(-114.35 -114.94)"/><path d="M154.24,127.2l2.44-3.45,2.44,3.45-2.44,3.45Z" transform="translate(-114.35 -114.94)"/><path d="M129.27,138.64c-0.89-.37-1.33-2.4-1.55-4.69-0.3-3.62-1.4-5.5-4.69-5.5h-5.5v10.19h-3.17V115.38h8.78c5.87,0,8.56,2.55,8.56,6.46,0,2.92-2.62,5.09-5.65,5.31,2.69,0.44,4.06,2.58,4.5,5.32,0.59,3.88,1.33,5.17,2.58,5.91v0.26h-3.88Zm-11.74-12.77h5.13c3.95,0,5.79-1.25,5.79-3.91s-1.62-3.88-5.54-3.88h-5.39v7.79Z" transform="translate(-114.35 -114.94)"/><path d="M179.08,131.33a8.28,8.28,0,0,0,7.71,5.09c3.14,0,5.5-1.33,5.5-4,0-2.1-1.44-3-3.91-3.54l-4.61-1.11c-3.06-.7-5.57-2.44-5.57-6.09,0-3.95,3.17-6.72,7.75-6.72,4.17,0,7.12,2,8.56,4.58l-2.07,2.25a6.9,6.9,0,0,0-6.5-4.17c-2.84,0-4.72,1.4-4.72,3.91,0,2.18,1.55,2.92,3.95,3.47l4.1,1c3.4,0.81,6,2.4,6,6.39,0,4.24-3.69,6.75-8.49,6.75-4.24,0-8.12-2-9.67-5.32Z" transform="translate(-114.35 -114.94)"/><path d="M214,129.33v9.3h-3.21V115.38h8c5.76,0,9,2.62,9,7s-3.29,7-9,7H214Zm4.69-2.69c4,0,5.94-1.4,5.94-4.28s-2-4.28-5.94-4.28H214v8.56h4.69Z" transform="translate(-114.35 -114.94)"/><path d="M246.15,115.38v20.45h12v2.81H242.9V115.38h3.25Z" transform="translate(-114.35 -114.94)"/><path d="M318.18,133.39v-18h3v23.25h-2.84l-11.52-19.19v19.19h-3V115.38h3.76Z" transform="translate(-114.35 -114.94)"/><path d="M337.06,115.38h6.13c7.16,0,11.74,4.36,11.74,11.63s-4.58,11.63-11.74,11.63h-6.13V115.38Zm5.76,20.6c5.68,0,8.75-3.32,8.75-9s-3.06-9-8.75-9h-2.51V136h2.51Z" transform="translate(-114.35 -114.94)"/></svg>